<svg width="26" height="26" viewBox="0 0 26 26" fill="none" xmlns="http://www.w3.org/2000/svg">
<path d="M2.58213 14.9426C2.09893 11.5154 1.85733 9.80179 2.88417 8.69264C3.911 7.5835 5.73903 7.5835 9.39508 7.5835H16.6049C20.2609 7.5835 22.089 7.5835 23.1158 8.69264C24.1427 9.80179 23.9011 11.5154 23.4179 14.9426L22.9596 18.1926C22.5807 20.8802 22.3912 22.224 21.4193 23.0287C20.4473 23.8335 19.0138 23.8335 16.1467 23.8335H9.8533C6.9862 23.8335 5.55265 23.8335 4.58069 23.0287C3.60873 22.224 3.41927 20.8802 3.04034 18.1926L2.58213 14.9426Z" stroke="#424242" stroke-width="1.625"/>
<path d="M21.1921 7.58333C21.4398 6.16983 20.3521 4.875 18.9171 4.875H7.08293C5.6479 4.875 4.56022 6.16983 4.8079 7.58333" stroke="#424242" stroke-width="1.625"/>
<path d="M18.9583 4.87484C18.9891 4.59417 19.0044 4.4538 19.0047 4.33788C19.0071 3.22895 18.1718 2.2972 17.0692 2.17887C16.954 2.1665 16.8128 2.1665 16.5304 2.1665H9.46947C9.1871 2.1665 9.04592 2.1665 8.93065 2.17887C7.82806 2.2972 6.99277 3.22895 6.99518 4.33788C6.99544 4.4538 7.0108 4.59415 7.04154 4.87484" stroke="#424242" stroke-width="1.625"/>
<circle cx="17.875" cy="12.4585" r="1.625" stroke="#424242" stroke-width="1.625"/>
<path d="M21.6667 21.6665L18.5421 19.3389C17.5345 18.5883 16.0339 18.5135 14.9248 19.1587L14.6358 19.3268C13.865 19.7752 12.8164 19.7 12.1503 19.1486L7.99228 15.707C7.16236 15.02 5.83111 14.9834 4.94781 15.6231L3.51355 16.6618" stroke="#424242" stroke-width="1.625" stroke-linecap="round"/>
</svg>
