<svg width="33" height="34" viewBox="0 0 33 34" fill="none" xmlns="http://www.w3.org/2000/svg">
<path fill-rule="evenodd" clip-rule="evenodd" d="M19.2838 21.17C21.5747 19.2519 21.8757 15.8414 19.956 13.5523L19.7128 13.2623L23.6084 10.0008L23.8516 10.2909C27.5741 14.7296 26.9904 21.343 22.548 25.0623L19.2838 21.17Z" fill="url(#paint0_linear_237_143)"/>
<path fill-rule="evenodd" clip-rule="evenodd" d="M12.2818 19.482L12.525 19.772L8.62946 23.0335L8.38623 22.7435C4.66377 18.3047 5.24742 11.6913 9.68984 7.972L12.9541 11.8644C10.6631 13.7824 10.3621 17.1929 12.2818 19.482Z" fill="url(#paint1_linear_237_143)"/>
<path d="M7.90523 6.12518L17.8651 4.45141L14.3511 13.8113L7.90523 6.12518ZM14.3935 28.5869L17.9076 19.227L24.3534 26.9132L14.3935 28.5869Z" fill="#7F38E9"/>
<defs>
<linearGradient id="paint0_linear_237_143" x1="21.0868" y1="22.6223" x2="27.5285" y2="16.908" gradientUnits="userSpaceOnUse">
<stop stop-color="#7357E9"/>
<stop offset="1" stop-color="#5735E4"/>
</linearGradient>
<linearGradient id="paint1_linear_237_143" x1="11.151" y1="10.412" x2="4.70928" y2="16.1264" gradientUnits="userSpaceOnUse">
<stop stop-color="#7357E9"/>
<stop offset="1" stop-color="#5735E4"/>
</linearGradient>
</defs>
</svg>
