<svg width="26" height="26" viewBox="0 0 26 26" fill="none" xmlns="http://www.w3.org/2000/svg">
<path d="M17.0625 16.25C16.847 16.25 16.6403 16.3356 16.488 16.488C16.3356 16.6403 16.25 16.847 16.25 17.0625C16.25 17.278 16.3356 17.4847 16.488 17.637C16.6403 17.7894 16.847 17.875 17.0625 17.875H20.3125C20.528 17.875 20.7347 17.7894 20.887 17.637C21.0394 17.4847 21.125 17.278 21.125 17.0625C21.125 16.847 21.0394 16.6403 20.887 16.488C20.7347 16.3356 20.528 16.25 20.3125 16.25H17.0625ZM1.625 8.9375C1.625 7.86006 2.05301 6.82675 2.81488 6.06488C3.57675 5.30301 4.61006 4.875 5.6875 4.875H20.3125C21.3899 4.875 22.4233 5.30301 23.1851 6.06488C23.947 6.82675 24.375 7.86006 24.375 8.9375V17.0625C24.375 18.1399 23.947 19.1733 23.1851 19.9351C22.4233 20.697 21.3899 21.125 20.3125 21.125H5.6875C4.61006 21.125 3.57675 20.697 2.81488 19.9351C2.05301 19.1733 1.625 18.1399 1.625 17.0625V8.9375ZM22.75 9.75V8.9375C22.75 8.29103 22.4932 7.67105 22.0361 7.21393C21.579 6.75681 20.959 6.5 20.3125 6.5H5.6875C5.04103 6.5 4.42105 6.75681 3.96393 7.21393C3.50681 7.67105 3.25 8.29103 3.25 8.9375V9.75H22.75ZM3.25 11.375V17.0625C3.25 17.709 3.50681 18.329 3.96393 18.7861C4.42105 19.2432 5.04103 19.5 5.6875 19.5H20.3125C20.959 19.5 21.579 19.2432 22.0361 18.7861C22.4932 18.329 22.75 17.709 22.75 17.0625V11.375H3.25Z" fill="#424242"/>
</svg>
