<svg width="26" height="26" viewBox="0 0 26 26" fill="none" xmlns="http://www.w3.org/2000/svg">
<path d="M2.16669 15.1667C2.16669 11.0812 2.16669 9.03841 3.43589 7.7692C4.70509 6.5 6.74785 6.5 10.8334 6.5H15.1667C19.2522 6.5 21.2949 6.5 22.5641 7.7692C23.8334 9.03841 23.8334 11.0812 23.8334 15.1667C23.8334 19.2522 23.8334 21.2949 22.5641 22.5641C21.2949 23.8333 19.2522 23.8333 15.1667 23.8333H10.8334C6.74785 23.8333 4.70509 23.8333 3.43589 22.5641C2.16669 21.2949 2.16669 19.2522 2.16669 15.1667Z" stroke="#424242" stroke-width="1.875"/>
<path d="M17.3333 6.50033C17.3333 4.45757 17.3333 3.4362 16.6987 2.80159C16.0641 2.16699 15.0427 2.16699 13 2.16699C10.9572 2.16699 9.93586 2.16699 9.30126 2.80159C8.66666 3.4362 8.66666 4.45757 8.66666 6.50033" stroke="#424242" stroke-width="1.875"/>
<path d="M18.4167 9.74984C18.4167 10.3481 17.9316 10.8332 17.3333 10.8332C16.735 10.8332 16.25 10.3481 16.25 9.74984C16.25 9.15153 16.735 8.6665 17.3333 8.6665C17.9316 8.6665 18.4167 9.15153 18.4167 9.74984Z" fill="#424242"/>
<path d="M9.75001 9.74984C9.75001 10.3481 9.26499 10.8332 8.66668 10.8332C8.06837 10.8332 7.58334 10.3481 7.58334 9.74984C7.58334 9.15153 8.06837 8.6665 8.66668 8.6665C9.26499 8.6665 9.75001 9.15153 9.75001 9.74984Z" fill="#424242"/>
</svg>
