<svg width="26" height="26" viewBox="0 0 26 26" fill="none" xmlns="http://www.w3.org/2000/svg">
<path d="M20.5833 23.8335V22.2085M5.41666 23.8335V22.2085" stroke="#424242" stroke-width="1.75781" stroke-linecap="round"/>
<path d="M2.16666 10.8337C2.16666 6.74815 2.16666 4.7054 3.43586 3.4362C4.70506 2.16699 6.74782 2.16699 10.8333 2.16699H15.1667C19.2522 2.16699 21.2949 2.16699 22.5641 3.4362C23.8333 4.7054 23.8333 6.74815 23.8333 10.8337V13.0003C23.8333 17.0858 23.8333 19.1286 22.5641 20.3978C21.2949 21.667 19.2522 21.667 15.1667 21.667H10.8333C6.74782 21.667 4.70506 21.667 3.43586 20.3978C2.16666 19.1286 2.16666 17.0858 2.16666 13.0003V10.8337Z" stroke="#424242" stroke-width="1.75781"/>
<path d="M9.75 16.792H16.25" stroke="#424242" stroke-width="1.75781" stroke-linecap="round"/>
<path d="M9.75 7.0415H16.25" stroke="#424242" stroke-width="1.75781" stroke-linecap="round"/>
<path d="M2.16666 11.9165H23.8333" stroke="#424242" stroke-width="1.75781" stroke-linecap="round"/>
</svg>
