<svg width="470" height="187" viewBox="0 0 470 187" fill="none" xmlns="http://www.w3.org/2000/svg">
<g opacity="0.08">
<path d="M298.402 -256.712C424.005 -224.555 498.465 -101.221 464.806 18.7104C431.147 138.642 302.082 209.869 176.48 177.712C50.8775 145.555 -23.5819 22.2204 10.0774 -97.7111C43.7368 -217.642 172.8 -288.869 298.402 -256.712Z" stroke="#BF9CF4" stroke-width="1.77864"/>
<path d="M282.574 -200.315C375.578 -176.504 430.699 -85.1851 405.781 3.59918C380.864 92.3833 285.311 145.126 192.307 121.315C99.3031 97.5037 44.1831 6.18495 69.1006 -82.5992C94.0182 -171.383 189.57 -224.127 282.574 -200.315Z" stroke="#BF9CF4" stroke-width="1.77864"/>
<path d="M266.394 -142.665C326.076 -127.385 361.426 -68.7941 345.445 -11.8494C329.463 45.0954 268.169 78.9441 208.487 63.6644C148.805 48.3844 113.454 -10.208 129.436 -67.1529C145.418 -124.098 206.713 -157.945 266.394 -142.665Z" stroke="#BF9CF4" stroke-width="1.77864"/>
<path d="M250.917 -87.5213C278.725 -80.4018 295.166 -53.1146 287.732 -26.6249C280.297 -0.135078 251.771 15.64 223.962 8.52041C196.154 1.40085 179.713 -25.8871 187.147 -52.377C194.582 -78.8665 223.109 -94.6409 250.917 -87.5213Z" stroke="#BF9CF4" stroke-width="1.77864"/>
</g>
</svg>
